<svg xmlns="http://www.w3.org/2000/svg" width="580" height="435" viewBox="0 0 580 435" version="1.1">
	<path d="M 309.022 50.259 C 304.100 60.151, 296.958 69.318, 288.628 76.434 L 282.974 81.265 277.737 76.318 C 267.963 67.084, 258.047 63, 245.400 63 C 234.564 63, 234.047 63.585, 240.942 68.041 C 247.456 72.251, 249.438 74.725, 250.524 80 C 250.920 81.925, 252.065 85.123, 253.069 87.107 L 254.895 90.714 242.478 91.403 C 235.649 91.783, 227.460 92.752, 224.281 93.557 C 205.836 98.225, 180.115 117.408, 171.008 133.288 C 169.364 136.155, 168.015 138.779, 168.009 139.120 C 168.004 139.461, 171.043 136.761, 174.762 133.120 C 182.070 125.966, 189.796 121.624, 197 120.623 C 199.475 120.279, 206.727 120.616, 213.115 121.371 C 220.450 122.238, 226.616 122.446, 229.850 121.935 C 235.441 121.051, 246.296 116.553, 248.108 114.370 C 248.733 113.616, 249.527 113, 249.872 112.999 C 250.218 112.999, 250.342 117.339, 250.149 122.645 C 249.955 127.950, 250.333 135.018, 250.989 138.350 C 252.200 144.503, 258.312 158, 259.888 158 C 260.362 158, 261.028 156.611, 261.367 154.914 C 262.081 151.344, 267.980 138.961, 274.348 127.662 C 277.012 122.935, 279.017 117.930, 279.399 115.051 L 280.032 110.277 286.766 112.240 C 291.111 113.507, 296.901 114.254, 303.086 114.346 C 312.527 114.487, 312.807 114.423, 321.586 110.078 C 332.313 104.770, 341.272 96.385, 345.746 87.466 C 351.179 76.636, 350.951 76.142, 343.460 82.497 C 334.113 90.427, 326.267 93.998, 318.193 93.999 C 311.026 94, 303 92.271, 303 90.726 C 303 90.155, 304.150 88.181, 305.555 86.339 C 306.960 84.496, 309.536 79.954, 311.279 76.244 C 314.045 70.356, 314.492 68.230, 314.795 59.500 C 314.986 54, 314.746 47.700, 314.261 45.500 L 313.380 41.500 309.022 50.259 M 222 70.272 C 222 71.052, 222.787 72.358, 223.750 73.174 C 226.182 75.235, 236.831 79.083, 237.429 78.115 C 238.004 77.184, 230.905 73, 228.749 73 C 227.935 73, 226.084 72.067, 224.635 70.927 C 222.669 69.381, 222 69.215, 222 70.272 M 347.500 100.713 C 340.546 110.478, 326.801 119.193, 313.158 122.488 C 306.057 124.202, 303.345 124.197, 291.500 122.446 L 287.500 121.854 283.923 128.677 C 281.955 132.430, 278.259 139.338, 275.709 144.028 C 273.159 148.719, 270.340 155.469, 269.445 159.028 C 267.198 167.967, 265.737 170, 261.555 170 C 258.798 170, 257.463 169.197, 254.488 165.750 C 247.753 157.946, 241 140.913, 241 131.729 C 241 128.832, 240.931 128.793, 237.250 129.639 C 233.373 130.529, 220.159 130.674, 204.500 129.997 C 196.334 129.644, 195.032 129.850, 190.452 132.219 C 174.017 140.718, 157.276 171.606, 151.821 203.494 C 149.191 218.863, 149.703 243.346, 152.949 257.500 C 166.767 317.752, 213.408 361.467, 273.500 370.487 C 350.178 381.997, 422.335 330.922, 437.684 254.270 C 440.382 240.798, 440.129 211.844, 437.196 198.312 C 429.586 163.209, 410.316 132.917, 382.068 111.654 C 372.891 104.747, 355.645 94.948, 352.841 95.048 C 352.104 95.074, 349.700 97.624, 347.500 100.713 M 360.073 124.635 C 356.309 129.420, 357.390 131.770, 366.726 139.094 C 375.393 145.894, 383.948 154.835, 389.291 162.680 C 395.053 171.140, 398.568 172.701, 403.365 168.927 C 408.257 165.079, 406.721 160.611, 396.002 147.513 C 389.158 139.149, 382.625 132.929, 374.081 126.638 C 366.682 121.192, 363.175 120.690, 360.073 124.635 M 308.500 201.590 C 290.350 213.460, 273.759 224.821, 271.630 226.836 C 257.585 240.136, 261.147 263.054, 278.586 271.586 C 292.685 278.484, 309.601 272.579, 316.873 258.222 C 317.910 256.175, 323.072 241, 328.345 224.500 C 333.617 208, 339.045 191.238, 340.406 187.250 C 341.767 183.262, 342.570 180.002, 342.190 180.004 C 341.811 180.006, 326.650 189.720, 308.500 201.590 M 284.241 233.995 C 277.402 238.164, 274.984 247.181, 278.956 253.696 C 286.281 265.709, 304.270 261.647, 305.688 247.659 C 306.845 236.234, 293.996 228.047, 284.241 233.995 M 430.969 307.750 C 421.255 325.090, 403 344.426, 384.500 356.974 C 361.298 372.710, 337.071 381.265, 307.811 384.053 C 287.164 386.020, 265.605 383.469, 243.829 376.483 C 213.189 366.653, 183.386 344.388, 164.206 317 C 158.404 308.716, 157.104 307.387, 160.031 312.733 C 164.611 321.097, 175.086 333.864, 185.767 344.098 C 206.059 363.543, 228.723 376.032, 256.374 383.006 C 317.803 398.500, 383.288 375.193, 421.358 324.287 C 426.938 316.825, 435.783 302, 434.654 302 C 434.399 302, 432.741 304.587, 430.969 307.750" stroke="none" fill="black" fill-rule="evenodd"/>
</svg>